<svg width="40" height="40" viewBox="0 0 40 40" fill="none" xmlns="http://www.w3.org/2000/svg">
<mask id="mask0_1203_6939" style="mask-type:alpha" maskUnits="userSpaceOnUse" x="0" y="0" width="40" height="40">
<rect width="40" height="40" rx="20" fill="#C4C4C4"/>
</mask>
<g mask="url(#mask0_1203_6939)">
<mask id="mask1_1203_6939" style="mask-type:alpha" maskUnits="userSpaceOnUse" x="0" y="0" width="40" height="40">
<rect width="40" height="40" fill="#C4C4C4"/>
</mask>
<g mask="url(#mask1_1203_6939)">
<rect width="40" height="40" fill="#F5EFFF"/>
<path d="M36.4442 40.0007H3.33331C3.33331 40.0007 3.77769 37.8943 4.41093 35.7791C5.04418 33.6638 6.35289 32.7773 8.04821 32.344C8.52592 32.2218 9.40135 31.9663 10.4123 31.6663C10.8012 31.5485 11.2122 31.4263 11.6277 31.2997C11.821 31.2419 12.0165 31.1819 12.2121 31.1219C14.3451 30.4731 16.427 29.8266 16.427 29.8266L19.871 29.5511L19.891 29.5488L19.911 29.5511L23.0172 29.7999C23.0172 29.7999 24.8858 30.3598 26.9256 30.9642C27.3166 31.0797 27.7166 31.1975 28.1076 31.313C29.6341 31.7596 31.0761 32.1773 31.7293 32.344C33.4246 32.7795 34.7333 33.6638 35.3666 35.7791C35.9998 37.8943 36.4442 40.0007 36.4442 40.0007Z" fill="#19274B"/>
<path d="M28.1076 31.3103C27.9077 32.1702 27.5633 33.3034 26.9811 34.4232C25.8435 36.6185 23.8016 38.7759 20.1665 38.7759C16.3159 38.7759 14.114 36.5407 12.8853 34.3965C12.2032 33.2034 11.821 32.0391 11.6255 31.2992C11.8188 31.2414 12.0143 31.1814 12.2099 31.1214C14.3429 30.4727 16.4248 29.8261 16.4248 29.8261L19.8688 29.5506L19.8888 29.5483L19.9088 29.5506L23.015 29.7994C23.015 29.7994 24.8836 30.3593 26.9233 30.9637C27.3166 31.077 27.7143 31.1948 28.1076 31.3103Z" fill="#FF8881"/>
<path d="M15.5494 30.4395C15.4583 30.4395 15.3716 30.4039 15.3072 30.3395C15.2916 30.3239 15.2761 30.3061 15.265 30.2884C15.2516 30.2706 15.2428 30.2506 15.2339 30.2284C15.225 30.2084 15.2183 30.1862 15.2139 30.1639C15.2094 30.1417 15.2072 30.1195 15.2072 30.0973C15.2072 30.0751 15.2094 30.0528 15.2139 30.0306C15.2183 30.0084 15.225 29.9862 15.2339 29.9662C15.2428 29.9462 15.2516 29.9262 15.265 29.9084C15.2783 29.8906 15.2916 29.8729 15.3072 29.8573C15.3716 29.7929 15.4583 29.7573 15.5494 29.7573C15.6405 29.7573 15.7271 29.7929 15.7916 29.8573C15.8071 29.8729 15.8227 29.8906 15.8338 29.9084C15.8449 29.9262 15.856 29.9462 15.8649 29.9662C15.8738 29.9862 15.8805 30.0084 15.8849 30.0306C15.8893 30.0528 15.8916 30.0751 15.8916 30.0973C15.8916 30.1195 15.8893 30.1417 15.8849 30.1639C15.8805 30.1862 15.8738 30.2062 15.8649 30.2284C15.856 30.2484 15.8449 30.2684 15.8338 30.2884C15.8205 30.3061 15.8071 30.3239 15.7916 30.3395C15.776 30.355 15.7582 30.3706 15.7405 30.3817C15.7227 30.3928 15.7027 30.4039 15.6805 30.4128C15.6605 30.4217 15.6383 30.4283 15.616 30.4328C15.5938 30.4372 15.5716 30.4395 15.5494 30.4395Z" fill="#F5EFFF"/>
<path d="M19.911 33.9234C19.7221 33.9234 19.5688 33.7679 19.5711 33.5813C19.5711 33.3924 19.7244 33.2391 19.9132 33.2413C20.1021 33.2413 20.2554 33.3946 20.2554 33.5835C20.2532 33.7701 20.0999 33.9234 19.911 33.9234ZM20.4465 33.5724C20.4198 33.3857 20.5509 33.2124 20.7376 33.1858C20.9242 33.1591 21.0975 33.2902 21.1219 33.4768C21.1486 33.6635 21.0175 33.8368 20.8309 33.8634C20.8153 33.8657 20.7998 33.8657 20.7842 33.8657C20.6153 33.8657 20.4709 33.7435 20.4465 33.5724ZM18.9889 33.8568C18.8023 33.8301 18.6734 33.6546 18.7001 33.4679C18.7267 33.2813 18.9023 33.1524 19.0889 33.1791C19.2755 33.2058 19.4044 33.3791 19.3777 33.5657C19.3533 33.7368 19.2067 33.859 19.04 33.859C19.0222 33.859 19.0045 33.859 18.9889 33.8568ZM21.313 33.4368C21.253 33.2569 21.3508 33.0636 21.5308 33.0058C21.7108 32.9458 21.9041 33.0436 21.9618 33.2235C22.0218 33.4035 21.9241 33.5968 21.7441 33.6546C21.7085 33.6657 21.673 33.6724 21.6374 33.6724C21.4952 33.6724 21.3597 33.5813 21.313 33.4368ZM18.0757 33.6413C17.8957 33.5813 17.8002 33.3857 17.8624 33.208C17.9224 33.028 18.1157 32.9325 18.2957 32.9947C18.4757 33.0547 18.5712 33.2502 18.509 33.4279C18.4601 33.5701 18.3268 33.6612 18.1846 33.6612C18.149 33.659 18.1135 33.6524 18.0757 33.6413ZM22.1396 33.1435C22.0418 32.9813 22.0951 32.7725 22.2573 32.6747C22.4195 32.577 22.6284 32.6303 22.7262 32.7925C22.8239 32.9547 22.7706 33.1635 22.6084 33.2613C22.5529 33.2946 22.4929 33.3102 22.4329 33.3102C22.3196 33.3102 22.204 33.2502 22.1396 33.1435ZM17.2158 33.2435C17.0536 33.1458 17.0025 32.9369 17.1003 32.7747C17.1981 32.6125 17.4069 32.5614 17.5691 32.6592C17.7313 32.7569 17.7824 32.968 17.6847 33.128C17.6202 33.2346 17.5069 33.2924 17.3914 33.2924C17.3314 33.2924 17.2692 33.2769 17.2158 33.2435ZM22.8817 32.6725C22.7484 32.5392 22.7506 32.3214 22.8839 32.1881C23.0172 32.0548 23.235 32.0548 23.3683 32.1903C23.5016 32.3237 23.5016 32.5414 23.3661 32.6747C23.2994 32.7414 23.2128 32.7747 23.1261 32.7747C23.0372 32.7747 22.9484 32.7414 22.8817 32.6725ZM16.4604 32.6569C16.3248 32.5236 16.3248 32.3081 16.4559 32.1726C16.5893 32.037 16.8048 32.037 16.9403 32.1703C17.0758 32.3037 17.0759 32.5192 16.9425 32.6525C16.8759 32.7214 16.787 32.7547 16.6981 32.7547C16.6137 32.7547 16.527 32.7214 16.4604 32.6569ZM23.4883 32.037C23.3261 31.937 23.2772 31.726 23.3772 31.566C23.4772 31.406 23.6883 31.3549 23.8482 31.4549C24.0082 31.5549 24.0593 31.7637 23.9593 31.9259C23.8949 32.0304 23.7816 32.0881 23.6683 32.0881C23.606 32.0881 23.5438 32.0726 23.4883 32.037ZM15.8649 31.9126C15.7649 31.7526 15.8116 31.5415 15.9716 31.4416C16.1315 31.3416 16.3426 31.3882 16.4426 31.5482C16.5426 31.7082 16.4959 31.9193 16.336 32.0193C16.2782 32.0548 16.216 32.0726 16.1538 32.0726C16.0404 32.0726 15.9293 32.017 15.8649 31.9126ZM23.9304 31.2771C23.7527 31.2149 23.6594 31.0194 23.7216 30.8416C23.7838 30.6639 23.9793 30.5706 24.1571 30.6328C24.3348 30.695 24.4281 30.8905 24.3659 31.0683C24.3171 31.2083 24.1837 31.2971 24.0438 31.2971C24.006 31.2971 23.9682 31.2905 23.9304 31.2771ZM15.445 31.0638C15.3805 30.8861 15.4694 30.6906 15.6472 30.6239C15.8249 30.5572 16.0204 30.6483 16.0871 30.8261C16.1515 31.0016 16.0627 31.1994 15.8849 31.266C15.8449 31.2816 15.8049 31.2882 15.7649 31.2882C15.6272 31.286 15.4961 31.2016 15.445 31.0638Z" fill="#F5EFFF"/>
<path d="M24.246 30.4395C24.2238 30.4395 24.2015 30.4372 24.1793 30.4328C24.1571 30.4283 24.1371 30.4217 24.1149 30.4128C24.0949 30.4039 24.0749 30.3928 24.0549 30.3817C24.0371 30.3684 24.0194 30.355 24.0038 30.3395C23.9882 30.3239 23.9727 30.3061 23.9616 30.2884C23.9482 30.2706 23.9371 30.2506 23.9305 30.2284C23.9216 30.2084 23.9149 30.1862 23.9105 30.1639C23.906 30.1417 23.9038 30.1195 23.9038 30.0973C23.9038 30.0751 23.906 30.0528 23.9105 30.0306C23.9149 30.0084 23.9216 29.9884 23.9305 29.9662C23.9394 29.9462 23.9505 29.9262 23.9616 29.9084C23.9727 29.8906 23.9882 29.8729 24.0038 29.8573C24.0194 29.8418 24.0371 29.8262 24.0549 29.8151C24.0727 29.8018 24.0927 29.7929 24.1149 29.784C24.1349 29.7751 24.1571 29.7684 24.1793 29.764C24.2238 29.7551 24.2682 29.7551 24.3126 29.764C24.3349 29.7684 24.3549 29.7751 24.3771 29.784C24.3971 29.7929 24.4171 29.8018 24.4348 29.8151C24.4526 29.8284 24.4704 29.8418 24.4882 29.8573C24.5037 29.8729 24.5171 29.8906 24.5304 29.9084C24.5437 29.9262 24.5526 29.9462 24.5615 29.9662C24.5704 29.9862 24.577 30.0084 24.5815 30.0306C24.5859 30.0528 24.5882 30.0751 24.5882 30.0973C24.5882 30.1195 24.5859 30.1417 24.5815 30.1639C24.577 30.1862 24.5704 30.2062 24.5615 30.2284C24.5526 30.2484 24.5437 30.2684 24.5304 30.2884C24.5171 30.3061 24.5037 30.3239 24.4882 30.3395C24.4726 30.355 24.4548 30.3706 24.4348 30.3817C24.4171 30.3928 24.3971 30.4039 24.3771 30.4128C24.3571 30.4217 24.3349 30.4283 24.3126 30.4328C24.2904 30.4372 24.2682 30.4395 24.246 30.4395Z" fill="#F5EFFF"/>
<path d="M26.9811 34.4231C25.8435 36.6184 23.8016 38.7759 20.1665 38.7759C16.3159 38.7759 14.114 36.5406 12.8853 34.3965C16.036 35.1653 21.393 35.9518 26.9811 34.4231Z" fill="#F5EFFF"/>
<path d="M19.9095 29.5459V29.5505L19.8888 29.5482L19.9095 29.5459Z" fill="#5D46C2"/>
<path d="M19.8894 29.5482L19.8688 29.5505V29.5459L19.8894 29.5482Z" fill="#5D46C2"/>
<path d="M24.1237 9.19749C24.077 9.37969 24.0148 9.56633 23.937 9.75297C23.9037 9.83296 23.8682 9.91517 23.8304 9.99738C23.8126 10.0352 23.7948 10.0729 23.7748 10.1129C23.0816 11.4838 21.6574 12.3282 20.122 12.3282H18.8C17.7312 12.3282 16.6981 11.9171 15.9337 11.1683C15.5938 10.835 15.2583 10.4418 14.9961 9.99072C14.9516 9.91517 14.9094 9.83519 14.8694 9.7552C14.845 9.70409 14.8205 9.65299 14.7983 9.59966C14.3028 8.41983 14.5583 6.62008 15.8759 5.42914C19.151 2.47177 25.1835 5.1114 24.1237 9.19749Z" fill="#E9356E"/>
<path d="M24.1236 9.19733C24.077 9.37952 24.0148 9.56616 23.937 9.7528C23.9037 9.83279 23.8681 9.91501 23.8303 9.99722C23.8126 10.035 23.7948 10.0728 23.7748 10.1128C23.0816 11.4837 21.6573 12.328 20.122 12.328H18.7999C17.7312 12.328 16.698 11.9169 15.9337 11.1682C15.5937 10.8349 15.2582 10.4416 14.996 9.99055C14.9516 9.91501 14.9094 9.83502 14.8694 9.75503C14.8449 9.70393 14.8205 9.65282 14.7983 9.59949C15.7537 8.96625 17.429 8.13525 19.6465 8.13525C21.4129 8.13525 22.9838 8.66407 24.1236 9.19733Z" fill="#FFAC32"/>
<path d="M19.5932 25.5641C24.2281 25.5641 27.9854 21.8068 27.9854 17.1719C27.9854 12.5371 24.2281 8.77979 19.5932 8.77979C14.9583 8.77979 11.201 12.5371 11.201 17.1719C11.201 21.8068 14.9583 25.5641 19.5932 25.5641Z" fill="#E9356E"/>
<path d="M22.9594 30.6439C22.9594 30.6439 22.1017 32.2481 19.7065 32.2481C17.3913 32.2481 16.4181 30.5639 16.4181 30.5639L16.5603 29.4107L16.5847 29.2174L16.8069 27.3999L22.535 27.5599L22.6306 28.2509L22.6617 28.4775L22.9594 30.6439Z" fill="#FF8881"/>
<path d="M22.6283 28.248C21.3307 29.3478 19.231 29.7655 16.5603 29.4078L16.5847 29.2145L16.8069 27.397L22.535 27.557L22.6283 28.248Z" fill="#19274B"/>
<path d="M14.6539 22.6712C13.3719 24.4598 10.6145 23.2511 10.8011 20.8781C10.9722 18.7251 13.3763 19.0673 13.3763 19.0673L14.6539 22.6712Z" fill="#F55B5D"/>
<path d="M12.963 22.6491C12.963 22.8891 12.7697 23.0824 12.5298 23.0824C12.2898 23.0824 12.0965 22.8891 12.0965 22.6491C12.0965 22.4091 12.2898 22.2158 12.5298 22.2158C12.7697 22.2158 12.963 22.4114 12.963 22.6491Z" fill="#F5EFFF"/>
<path d="M13.4763 22.7155C13.3986 22.7155 13.3297 22.6621 13.3097 22.5844C13.0586 21.5645 12.001 20.6135 11.9921 20.6046C11.921 20.5424 11.9143 20.4336 11.9788 20.3625C12.041 20.2914 12.1499 20.2847 12.221 20.3491C12.2676 20.3913 13.3697 21.3801 13.6452 22.5022C13.6674 22.5933 13.6119 22.6866 13.5208 22.7088C13.503 22.7132 13.4897 22.7155 13.4763 22.7155Z" fill="#D1373F"/>
<path d="M13.0342 21.749C13.0164 21.749 12.9986 21.7468 12.9808 21.7401C12.512 21.5824 12.0654 21.6779 12.061 21.6801C11.9699 21.7001 11.8766 21.6423 11.8566 21.5512C11.8366 21.4601 11.8943 21.369 11.9854 21.3468C12.0077 21.3424 12.5276 21.2291 13.0897 21.4179C13.1786 21.4468 13.2275 21.5446 13.1986 21.6335C13.1719 21.7023 13.1053 21.749 13.0342 21.749Z" fill="#D1373F"/>
<path d="M24.1415 22.6712C25.4235 24.4598 28.1809 23.2511 27.9943 20.8781C27.8232 18.7251 25.4191 19.0673 25.4191 19.0673L24.1415 22.6712Z" fill="#F55B5D"/>
<path d="M26.7011 22.6491C26.7011 22.8891 26.5078 23.0824 26.2679 23.0824C26.0279 23.0824 25.8346 22.8891 25.8346 22.6491C25.8346 22.4091 26.0279 22.2158 26.2679 22.2158C26.5056 22.2158 26.7011 22.4114 26.7011 22.6491Z" fill="#F5EFFF"/>
<path d="M25.3191 22.7155C25.3058 22.7155 25.2924 22.7133 25.2791 22.711C25.188 22.6888 25.1302 22.5955 25.1547 22.5044C25.4302 21.3823 26.5323 20.3914 26.5789 20.3514C26.65 20.2892 26.7567 20.2958 26.8211 20.3647C26.8833 20.4358 26.8767 20.5425 26.8078 20.6069C26.7967 20.6158 25.739 21.5668 25.4902 22.5866C25.4657 22.6644 25.3969 22.7155 25.3191 22.7155Z" fill="#D1373F"/>
<path d="M25.7613 21.7493C25.6902 21.7493 25.6235 21.7048 25.5991 21.6315C25.568 21.5426 25.6169 21.4449 25.708 21.416C26.2701 21.2271 26.79 21.3404 26.8123 21.3449C26.9033 21.3649 26.9633 21.456 26.9411 21.5493C26.9211 21.6404 26.83 21.6982 26.7367 21.6782C26.7323 21.6759 26.2834 21.5826 25.8168 21.7382C25.7968 21.7448 25.7791 21.7493 25.7613 21.7493Z" fill="#D1373F"/>
<path d="M12.8675 16.4496C12.8675 16.4496 12.2409 20.3291 13.8629 24.1241C15.3316 27.5636 17.2869 28.6346 19.3688 28.6679C21.7352 28.7057 26.69 27.337 25.9057 16.1097C25.3769 8.52409 13.4941 8.79294 12.8675 16.4496Z" fill="#FF8881"/>
<path d="M24.1415 13.9392C24.1415 13.9392 25.248 16.9343 25.8368 17.7031L26.4834 15.7167C26.4834 15.7167 26.0145 9.98193 19.371 9.98193C12.5009 9.98193 12.7364 15.7167 12.7364 15.7167L13.3252 18.4163C13.3252 18.4163 15.0538 15.8389 15.1849 14.1302C15.1849 14.1302 17.4824 16.6766 19.6088 16.3722C19.6088 16.3722 18.8289 15.5367 18.62 14.8901C18.62 14.8901 22.335 16.8499 24.8214 16.1433C24.8214 16.1433 24.1903 15.2323 24.1415 13.9392Z" fill="#E9356E"/>
<path d="M12.7364 15.7144C12.7364 15.7144 11.9321 17.5541 12.3875 19.205C12.843 20.8559 14.7472 22.78 13.3985 24.7175C12.052 26.655 13.5185 29.448 15.5493 28.9347C15.5493 28.9347 13.4252 28.7192 13.534 26.5106C13.6407 24.302 15.8982 23.8643 14.1895 20.7581C12.4809 17.6519 14.0184 15.23 14.0184 15.23L12.7364 15.7144Z" fill="#E9356E"/>
<path d="M26.4833 15.7144C26.4833 15.7144 27.2877 17.5541 26.8322 19.205C26.3767 20.8559 24.4725 22.78 25.8212 24.7175C27.1677 26.655 25.7012 29.448 23.6704 28.9347C23.6704 28.9347 25.7946 28.7192 25.6857 26.5106C25.579 24.302 23.3216 23.8643 25.0302 20.7581C26.7389 17.6519 25.2013 15.23 25.2013 15.23L26.4833 15.7144Z" fill="#E9356E"/>
<path d="M15.0783 18.4164C15.0783 18.4164 15.9849 17.1544 17.5469 16.9922C17.8002 16.9655 18.0246 17.1611 18.0401 17.4144V17.4188C18.0557 17.6765 17.8513 17.8943 17.5935 17.8987C17.0069 17.9054 15.976 17.9898 15.0783 18.4164Z" fill="#E9356E"/>
<path d="M23.8415 18.4164C23.8415 18.4164 22.9349 17.1544 21.3729 16.9922C21.1196 16.9655 20.8952 17.1611 20.8797 17.4144V17.4188C20.8641 17.6765 21.0685 17.8943 21.3263 17.8987C21.9129 17.9054 22.9416 17.9898 23.8415 18.4164Z" fill="#E9356E"/>
<path d="M19.6643 26.6551C19.1777 26.6551 18.7911 26.484 18.7666 26.4729C18.6955 26.4396 18.6622 26.3551 18.6955 26.284C18.7289 26.2129 18.8133 26.1796 18.8844 26.2129C18.8933 26.2174 19.7732 26.6018 20.4775 26.1396C20.5442 26.0952 20.6308 26.1152 20.6753 26.1796C20.7175 26.2463 20.6997 26.3329 20.6353 26.3773C20.3109 26.5884 19.9665 26.6551 19.6643 26.6551Z" fill="#F55B5D"/>
<path d="M20.1687 23.0246C20.1642 23.0246 20.162 23.0246 20.1576 23.0246L19.1155 22.9401C19.0377 22.9335 18.9777 22.8646 18.9844 22.7868C18.9911 22.7091 19.0599 22.6513 19.1377 22.6557L20.0087 22.7268L19.7376 20.0783C19.7287 20.0005 19.7865 19.9294 19.8643 19.9228C19.942 19.9139 20.0131 19.9717 20.0198 20.0494L20.3087 22.869C20.3131 22.9113 20.2975 22.9535 20.2687 22.9824C20.242 23.009 20.2064 23.0246 20.1687 23.0246Z" fill="#F55B5D"/>
<path d="M17.4291 24.1596C18.7111 24.3596 20.0154 24.4462 21.7618 24.0996C21.7618 24.0996 21.6107 25.966 19.5377 25.9727C17.7735 25.9793 17.4291 24.1596 17.4291 24.1596Z" fill="#F5EFFF"/>
<path d="M17.3246 20.0624C17.3246 20.5557 17.1002 20.9579 16.8225 20.9579C16.5447 20.9579 16.3203 20.5579 16.3203 20.0624C16.3203 19.5692 16.5447 19.167 16.8225 19.167C17.1002 19.1692 17.3246 19.5692 17.3246 20.0624Z" fill="#19274B"/>
<path d="M22.6595 20.0624C22.6595 20.5557 22.435 20.9579 22.1573 20.9579C21.8796 20.9579 21.6552 20.5579 21.6552 20.0624C21.6552 19.5692 21.8796 19.167 22.1573 19.167C22.435 19.1692 22.6595 19.5692 22.6595 20.0624Z" fill="#19274B"/>
<path d="M15.4916 21.8979C15.4916 21.9824 15.4227 22.0513 15.3382 22.0513C15.2538 22.0513 15.1849 21.9824 15.1849 21.8979C15.1849 21.8135 15.2538 21.7446 15.3382 21.7446C15.4227 21.7446 15.4916 21.8135 15.4916 21.8979Z" fill="#F55B5D"/>
<path d="M16.2425 22.269C16.2425 22.3535 16.1737 22.4223 16.0892 22.4223C16.0048 22.4223 15.9359 22.3535 15.9359 22.269C15.9359 22.1846 16.0048 22.1157 16.0892 22.1157C16.1737 22.1157 16.2425 22.1846 16.2425 22.269Z" fill="#F55B5D"/>
<path d="M15.4916 22.8047C15.4916 22.8892 15.4227 22.958 15.3382 22.958C15.2538 22.958 15.1849 22.8892 15.1849 22.8047C15.1849 22.7203 15.2538 22.6514 15.3382 22.6514C15.4227 22.6492 15.4916 22.7203 15.4916 22.8047Z" fill="#F55B5D"/>
<path d="M16.6736 22.958C16.6736 23.0424 16.6047 23.1113 16.5203 23.1113C16.4358 23.1113 16.3669 23.0424 16.3669 22.958C16.3669 22.8736 16.4358 22.8047 16.5203 22.8047C16.6047 22.8047 16.6736 22.8736 16.6736 22.958Z" fill="#F55B5D"/>
<path d="M17.4601 22.8047C17.4601 22.8892 17.3912 22.958 17.3068 22.958C17.2224 22.958 17.1535 22.8892 17.1535 22.8047C17.1535 22.7203 17.2224 22.6514 17.3068 22.6514C17.3912 22.6492 17.4601 22.7203 17.4601 22.8047Z" fill="#F55B5D"/>
<path d="M17.1024 22.0513C17.1024 22.1357 17.0335 22.2046 16.9491 22.2046C16.8647 22.2046 16.7958 22.1357 16.7958 22.0513C16.7958 21.9668 16.8647 21.8979 16.9491 21.8979C17.0335 21.8979 17.1024 21.9668 17.1024 22.0513Z" fill="#F55B5D"/>
<path d="M23.7904 21.8979C23.7904 21.9824 23.8593 22.0513 23.9437 22.0513C24.0282 22.0513 24.097 21.9824 24.097 21.8979C24.097 21.8135 24.0282 21.7446 23.9437 21.7446C23.8593 21.7446 23.7904 21.8135 23.7904 21.8979Z" fill="#F55B5D"/>
<path d="M23.1927 22.4223C23.2773 22.4223 23.346 22.3537 23.346 22.269C23.346 22.1844 23.2773 22.1157 23.1927 22.1157C23.108 22.1157 23.0394 22.1844 23.0394 22.269C23.0394 22.3537 23.108 22.4223 23.1927 22.4223Z" fill="#F55B5D"/>
<path d="M23.7904 22.8047C23.7904 22.8892 23.8593 22.958 23.9437 22.958C24.0282 22.958 24.097 22.8892 24.097 22.8047C24.097 22.7203 24.0282 22.6514 23.9437 22.6514C23.8593 22.6492 23.7904 22.7203 23.7904 22.8047Z" fill="#F55B5D"/>
<path d="M22.6105 22.958C22.6105 23.0424 22.6794 23.1113 22.7638 23.1113C22.8483 23.1113 22.9172 23.0424 22.9172 22.958C22.9172 22.8736 22.8483 22.8047 22.7638 22.8047C22.6794 22.8047 22.6105 22.8736 22.6105 22.958Z" fill="#F55B5D"/>
<path d="M21.8218 22.8047C21.8218 22.8892 21.8907 22.958 21.9751 22.958C22.0595 22.958 22.1284 22.8892 22.1284 22.8047C22.1284 22.7203 22.0595 22.6514 21.9751 22.6514C21.8907 22.6492 21.8218 22.7203 21.8218 22.8047Z" fill="#F55B5D"/>
<path d="M22.1795 22.0513C22.1795 22.1357 22.2484 22.2046 22.3328 22.2046C22.4172 22.2046 22.4861 22.1357 22.4861 22.0513C22.4861 21.9668 22.4172 21.8979 22.3328 21.8979C22.2484 21.8979 22.1795 21.9668 22.1795 22.0513Z" fill="#F55B5D"/>
<path d="M30.9678 34.657C26.117 33.216 22.6918 30.6682 19.5343 29.5205C16.3769 30.6682 12.9517 33.216 8.10086 34.657C0.403722 36.9422 -1.51929 26.6615 3.9743 23.0756C8.80987 19.9208 8.23348 19.3928 9.49848 13.9834C9.5801 13.6315 9.66936 13.2616 9.77138 12.8663C9.88104 12.4328 10.0009 11.9737 10.1361 11.484C10.2151 11.1984 10.2993 10.9229 10.386 10.6551C11.7071 6.59488 15.4919 4.03171 19.5369 4.17198C23.5818 4.03171 27.3667 6.59488 28.6878 10.6551C28.7745 10.9204 28.8561 11.1984 28.9377 11.484C29.0729 11.9737 29.1953 12.4328 29.3024 12.8663C29.4019 13.2616 29.4911 13.634 29.5753 13.9834C30.8403 19.3954 30.2639 19.9208 35.0995 23.0756C40.5905 26.6589 38.665 36.9396 30.9678 34.657Z" fill="#5A184A"/>
<path d="M39.4122 40.0014H1.40601C1.40601 40.0014 1.91609 37.5836 2.64295 35.1556C3.36982 32.7276 4.87201 31.71 6.81798 31.2127C7.36631 31.0724 8.37117 30.7791 9.53161 30.4348C10.1871 30.2384 10.8961 30.0242 11.5974 29.8125C14.0458 29.0678 16.4356 28.3256 16.4356 28.3256L20.3887 28.0094L20.4117 28.0068L20.4346 28.0094L24.0001 28.295C24.0001 28.295 26.145 28.9377 28.4863 29.6314C30.6847 30.2792 33.0591 30.973 34.0002 31.2152C35.9462 31.7151 37.4484 32.7302 38.1753 35.1582C38.9021 37.5836 39.4122 40.0014 39.4122 40.0014Z" fill="#E9356E"/>
<path d="M5.58095 34.8536C5.5376 34.8536 5.49679 34.8408 5.46108 34.8128L4.45367 34.0247C4.36951 33.9584 4.35421 33.836 4.42052 33.7493C4.48683 33.6651 4.60925 33.6498 4.69596 33.7161L5.70337 34.5042C5.78754 34.5705 5.80284 34.6929 5.73653 34.7796C5.69572 34.8281 5.63961 34.8536 5.58095 34.8536Z" fill="#C4205C"/>
<path d="M5.58095 39.1099C5.5376 39.1099 5.49679 39.0972 5.46108 39.0691L4.45367 38.2811C4.36951 38.2147 4.35421 38.0923 4.42052 38.0056C4.48683 37.9215 4.60925 37.9061 4.69596 37.9725L5.70337 38.7605C5.78754 38.8268 5.80284 38.9493 5.73653 39.036C5.69572 39.0844 5.63961 39.1099 5.58095 39.1099Z" fill="#C4205C"/>
<path d="M11.4622 33.2925C11.4265 33.2925 11.3908 33.2823 11.3602 33.2645C11.2684 33.2084 11.2403 33.086 11.2964 32.9941L11.9672 31.9051C12.0233 31.8133 12.1457 31.7853 12.2375 31.8414C12.3294 31.8975 12.3574 32.0199 12.3013 32.1117L11.6305 33.2007C11.5923 33.2594 11.5285 33.2925 11.4622 33.2925Z" fill="#C4205C"/>
<path d="M8.2359 37.5338C8.20019 37.5338 8.16448 37.5236 8.13388 37.5057C8.04207 37.4496 8.01401 37.3272 8.07012 37.2354L8.74088 36.1463C8.79699 36.0545 8.91941 36.0265 9.01122 36.0826C9.10304 36.1387 9.13109 36.2611 9.07498 36.3529L8.40422 37.4419C8.36597 37.5006 8.30221 37.5338 8.2359 37.5338Z" fill="#C4205C"/>
<path d="M9.67178 32.1935C9.68453 32.2267 9.68708 32.2624 9.67943 32.3006C9.65903 32.4078 9.55446 32.4741 9.4499 32.4537L8.19509 32.2012C8.08798 32.1808 8.02167 32.0762 8.04207 31.9716C8.06247 31.8645 8.16704 31.7982 8.27161 31.8186L9.52641 32.0711C9.59527 32.0839 9.64883 32.1323 9.67178 32.1935Z" fill="#C4205C"/>
<path d="M13.9923 36.9727C13.9489 36.9727 13.9081 36.96 13.8724 36.9319L12.865 36.1439C12.7808 36.0775 12.7655 35.9551 12.8318 35.8684C12.8981 35.7842 13.0206 35.7689 13.1073 35.8353L14.1147 36.6233C14.1989 36.6896 14.2142 36.8121 14.1478 36.8988C14.107 36.9472 14.0509 36.9727 13.9923 36.9727Z" fill="#C4205C"/>
<path d="M10.3885 39.0795C10.363 39.0642 10.34 39.0413 10.3247 39.0132C10.2712 38.9188 10.3018 38.799 10.3961 38.7454L11.5056 38.1078C11.5999 38.0542 11.7198 38.0848 11.7734 38.1792C11.8269 38.2736 11.7963 38.3935 11.7019 38.447L10.5925 39.0846C10.5262 39.1203 10.4497 39.1152 10.3885 39.0795Z" fill="#C4205C"/>
<path d="M27.846 34.8536C27.8026 34.8536 27.7618 34.8408 27.7261 34.8128L26.7187 34.0247C26.6345 33.9584 26.6192 33.836 26.6855 33.7493C26.7518 33.6651 26.8743 33.6498 26.961 33.7161L27.9684 34.5042C28.0526 34.5705 28.0679 34.6929 28.0015 34.7796C27.9607 34.8281 27.9046 34.8536 27.846 34.8536Z" fill="#C4205C"/>
<path d="M27.846 39.1099C27.8026 39.1099 27.7618 39.0972 27.7261 39.0691L26.7187 38.2811C26.6345 38.2147 26.6192 38.0923 26.6855 38.0056C26.7518 37.9215 26.8743 37.9061 26.961 37.9725L27.9684 38.7605C28.0526 38.8268 28.0679 38.9493 28.0015 39.036C27.9607 39.0844 27.9046 39.1099 27.846 39.1099Z" fill="#C4205C"/>
<path d="M33.7298 33.2925C33.6941 33.2925 33.6584 33.2823 33.6278 33.2645C33.536 33.2084 33.5079 33.086 33.564 32.9941L34.2348 31.9051C34.2909 31.8133 34.4133 31.7853 34.5051 31.8414C34.5969 31.8975 34.625 32.0199 34.5689 32.1117L33.8981 33.2007C33.8573 33.2594 33.7936 33.2925 33.7298 33.2925Z" fill="#C4205C"/>
<path d="M30.5035 37.5338C30.4678 37.5338 30.4321 37.5236 30.4015 37.5057C30.3097 37.4496 30.2816 37.3272 30.3378 37.2354L31.0085 36.1463C31.0646 36.0545 31.187 36.0265 31.2789 36.0826C31.3707 36.1387 31.3987 36.2611 31.3426 36.3529L30.6719 37.4419C30.6336 37.5006 30.5698 37.5338 30.5035 37.5338Z" fill="#C4205C"/>
<path d="M37.3693 39.3345C37.3336 39.3345 37.2978 39.3243 37.2672 39.3065C37.1754 39.2504 37.1474 39.128 37.2035 39.0361L37.8742 37.9471C37.9304 37.8553 38.0528 37.8272 38.1446 37.8834C38.2364 37.9395 38.2645 38.0619 38.2083 38.1537L37.5376 39.2427C37.4993 39.3014 37.4356 39.3345 37.3693 39.3345Z" fill="#C4205C"/>
<path d="M31.9369 32.1935C31.9496 32.2267 31.9522 32.2624 31.9445 32.3006C31.9241 32.4078 31.8195 32.4741 31.715 32.4537L30.4602 32.2012C30.3531 32.1808 30.2867 32.0762 30.3071 31.9716C30.3275 31.8645 30.4321 31.7982 30.5367 31.8186L31.7915 32.0711C31.8603 32.0839 31.9139 32.1323 31.9369 32.1935Z" fill="#C4205C"/>
<path d="M36.2573 36.1641C36.2139 36.1641 36.1731 36.1514 36.1374 36.1233L35.13 35.3353C35.0458 35.2689 35.0305 35.1465 35.0968 35.0598C35.1632 34.9757 35.2856 34.9603 35.3723 35.0267L36.3797 35.8147C36.4639 35.8811 36.4792 36.0035 36.4129 36.0902C36.3746 36.1386 36.3159 36.1641 36.2573 36.1641Z" fill="#C4205C"/>
<path d="M32.6561 39.0795C32.6306 39.0642 32.6076 39.0413 32.5923 39.0132C32.5387 38.9188 32.5693 38.799 32.6637 38.7454L33.7731 38.1078C33.8675 38.0542 33.9874 38.0848 34.0409 38.1792C34.0945 38.2736 34.0639 38.3935 33.9695 38.447L32.8601 39.0846C32.7938 39.1203 32.7147 39.1152 32.6561 39.0795Z" fill="#C4205C"/>
<path d="M20.3937 35.5928C20.358 35.5928 20.3223 35.5826 20.2917 35.5648C20.1999 35.5087 20.1718 35.3862 20.228 35.2944L20.8987 34.2054C20.9548 34.1136 21.0772 34.0855 21.1691 34.1417C21.2609 34.1978 21.2889 34.3202 21.2328 34.412L20.5621 35.501C20.5238 35.5597 20.46 35.5928 20.3937 35.5928Z" fill="#C4205C"/>
<path d="M17.2847 39.0132C17.249 39.0132 17.2133 39.003 17.1827 38.9852C17.0909 38.9291 17.0628 38.8067 17.1189 38.7148L17.7897 37.6258C17.8458 37.534 17.9682 37.506 18.06 37.5621C18.1519 37.6182 18.1799 37.7406 18.1238 37.8324L17.4531 38.9214C17.4148 38.9801 17.351 39.0132 17.2847 39.0132Z" fill="#C4205C"/>
<path d="M17.5296 34.9123C17.5423 34.9454 17.5449 34.9811 17.5372 35.0194C17.5168 35.1265 17.4123 35.1928 17.3077 35.1724L16.0529 34.9199C15.9458 34.8995 15.8795 34.795 15.8999 34.6904C15.9203 34.5833 16.0248 34.517 16.1294 34.5374L17.3842 34.7899C17.4531 34.8026 17.5066 34.8511 17.5296 34.9123Z" fill="#C4205C"/>
<path d="M24.8824 36.0343C24.8391 36.0343 24.7982 36.0215 24.7625 35.9934L23.7551 35.2054C23.671 35.1391 23.6557 35.0166 23.722 34.9299C23.7883 34.8458 23.9107 34.8305 23.9974 34.8968L25.0048 35.6849C25.089 35.7512 25.1043 35.8736 25.038 35.9603C24.9972 36.0088 24.9411 36.0343 24.8824 36.0343Z" fill="#C4205C"/>
<path d="M21.0568 39.1254C21.0313 39.1101 21.0084 39.0872 20.9931 39.0591C20.9395 38.9647 20.9701 38.8449 21.0645 38.7913L22.1739 38.1537C22.2683 38.1001 22.3881 38.1307 22.4417 38.2251C22.4953 38.3195 22.4646 38.4394 22.3703 38.4929L21.2609 39.1305C21.1945 39.1688 21.118 39.1637 21.0568 39.1254Z" fill="#C4205C"/>
<path d="M20.4323 28.0005V28.0057L20.4117 28.0031L20.4323 28.0005Z" fill="#5D46C2"/>
<path d="M20.412 28.0031L20.3887 28.0057V28.0005L20.412 28.0031Z" fill="#5D46C2"/>
<path d="M23.9363 29.2602C23.9363 29.2602 22.9519 31.1016 20.2025 31.1016C17.545 31.1016 16.4279 29.1684 16.4279 29.1684L16.5911 27.8447L16.6192 27.6229L16.8742 25.5366L23.4492 25.7203L23.5589 26.5134L23.5946 26.7736L23.9363 29.2602Z" fill="#FF8881"/>
<path d="M26.5147 32.109C24.8799 34.2156 21.3298 33.0807 20.177 31.5402C19.0242 33.0807 15.4766 34.2131 13.8392 32.109C12.263 30.0814 16.5324 28.314 16.5324 28.314C16.9686 30.2778 19.3634 30.9077 20.177 31.0608C20.9905 30.9077 23.3701 30.2803 23.8062 28.314C23.8036 28.314 28.0883 30.0789 26.5147 32.109Z" fill="#F5EFFF"/>
<path d="M23.5537 26.511C22.0643 27.7734 19.6542 28.2529 16.5886 27.8423L16.6166 27.6204L16.8717 25.5342L23.4466 25.7178L23.5537 26.511Z" fill="#19274B"/>
<path d="M14.4029 20.1098C12.9313 22.1629 9.76627 20.7755 9.98051 18.0516C10.1769 15.5803 12.9364 15.973 12.9364 15.973L14.4029 20.1098Z" fill="#F55B5D"/>
<path d="M12.8753 21.1757C12.8753 21.6807 12.4672 22.0888 11.9622 22.0888C11.4573 22.0888 11.0492 21.6807 11.0492 21.1757C11.0492 20.6708 11.4573 20.2627 11.9622 20.2627C12.4672 20.2627 12.8753 20.6708 12.8753 21.1757Z" fill="#FFAC32"/>
<path d="M13.0487 20.1607C12.9594 20.1607 12.8803 20.0995 12.8574 20.0103C12.5717 18.8422 11.3552 17.7481 11.345 17.7379C11.2634 17.6664 11.2557 17.5415 11.3297 17.4599C11.4011 17.3783 11.5261 17.3706 11.6077 17.4446C11.6612 17.493 12.9262 18.628 13.2425 19.9159C13.268 20.0205 13.2042 20.1276 13.0997 20.1531C13.0793 20.1582 13.064 20.1607 13.0487 20.1607Z" fill="#D1373F"/>
<path d="M12.5437 19.0513C12.5233 19.0513 12.5029 19.0488 12.4825 19.0411C11.9444 18.8601 11.4317 18.9697 11.4266 18.9723C11.3221 18.9952 11.2175 18.9289 11.192 18.8244C11.169 18.7198 11.2353 18.6152 11.3399 18.5897C11.3654 18.5846 11.9622 18.4545 12.6075 18.6713C12.7095 18.7045 12.7656 18.8167 12.7324 18.9187C12.7018 18.9978 12.6253 19.0513 12.5437 19.0513Z" fill="#D1373F"/>
<path d="M25.2906 20.1098C26.7622 22.1629 29.9273 20.7755 29.7131 18.0516C29.5167 15.5803 26.7571 15.973 26.7571 15.973L25.2906 20.1098Z" fill="#F55B5D"/>
<path d="M28.7261 21.1757C28.7261 21.6807 28.3181 22.0888 27.8131 22.0888C27.3081 22.0888 26.9 21.6807 26.9 21.1757C26.9 20.6708 27.3081 20.2627 27.8131 20.2627C28.3181 20.2627 28.7261 20.6708 28.7261 21.1757Z" fill="#FFAC32"/>
<path d="M26.6449 20.1607C26.6296 20.1607 26.6143 20.1581 26.599 20.1556C26.4944 20.1301 26.4281 20.023 26.4562 19.9184C26.7724 18.6304 28.0374 17.493 28.091 17.4471C28.1726 17.3756 28.295 17.3833 28.369 17.4624C28.4404 17.544 28.4327 17.6664 28.3537 17.7403C28.3409 17.7506 27.1269 18.8421 26.8413 20.0128C26.8132 20.102 26.7316 20.1607 26.6449 20.1607Z" fill="#D1373F"/>
<path d="M27.1499 19.0515C27.0683 19.0515 26.9918 19.0004 26.9638 18.9163C26.9306 18.8143 26.9842 18.702 27.0887 18.6689C27.734 18.4521 28.3308 18.5822 28.3563 18.5873C28.4608 18.6102 28.5297 18.7148 28.5042 18.8219C28.4812 18.9265 28.3767 18.9928 28.2696 18.9698C28.2645 18.9698 27.7518 18.8602 27.2137 19.0387C27.1933 19.0464 27.1703 19.0515 27.1499 19.0515Z" fill="#D1373F"/>
<path d="M12.3524 12.9686C12.3524 12.9686 11.6332 17.4216 13.495 21.7777C15.1808 25.7258 17.4252 26.9551 19.8149 26.9933C22.5311 27.0367 28.2185 25.4656 27.3182 12.5784C26.7086 3.8713 13.0716 4.1799 12.3524 12.9686Z" fill="#FF8881"/>
<path d="M11.9622 14.9375C11.9622 14.9375 12.105 17.697 13.2502 17.5924C14.3953 17.4879 13.8393 11.2751 13.8393 11.2751C13.8393 11.2751 14.8595 12.7798 16.7213 12.6166C18.5831 12.4534 16.8947 10.033 16.8947 10.033C16.8947 10.033 18.6111 12.4202 20.1847 12.3233C21.7558 12.2264 20.1847 9.28065 20.1847 9.28065C20.1847 9.28065 22.2378 12.6166 23.7145 12.5197C25.1912 12.4228 23.9415 9.64282 23.9415 9.64282C23.9415 9.64282 25.1172 12.7186 26.2394 12.9456C26.2394 12.9456 25.9563 17.4751 27.1576 17.2838C28.3563 17.0926 27.9125 12.03 27.4203 10.4921C26.928 8.9542 24.2832 5.09543 19.1952 5.58511C14.0995 6.07479 12.054 8.88789 11.9622 14.9375Z" fill="#5A184A"/>
<path d="M14.8875 15.2255C14.8875 15.2255 15.9281 13.7769 17.721 13.5907C18.0118 13.5601 18.2694 13.7845 18.2872 14.0753V14.0804C18.3051 14.3762 18.0704 14.6262 17.7746 14.6313C17.1013 14.6389 15.9204 14.7358 14.8875 15.2255Z" fill="#5A184A"/>
<path d="M24.9463 15.2255C24.9463 15.2255 23.9057 13.7769 22.1128 13.5907C21.8221 13.5601 21.5645 13.7845 21.5466 14.0753V14.0804C21.5288 14.3762 21.7634 14.6262 22.0592 14.6313C22.7326 14.6389 23.9159 14.7358 24.9463 15.2255Z" fill="#5A184A"/>
<path d="M20.1515 24.6824C19.593 24.6824 19.1492 24.4861 19.1212 24.4733C19.0396 24.435 19.0013 24.3381 19.0396 24.2565C19.0778 24.1749 19.1747 24.1366 19.2564 24.1749C19.2717 24.18 20.2765 24.6212 21.085 24.0907C21.1615 24.0423 21.261 24.0627 21.312 24.1366C21.3604 24.2132 21.34 24.3126 21.2661 24.3636C20.8937 24.6059 20.501 24.6824 20.1515 24.6824Z" fill="#F55B5D"/>
<path d="M20.7305 20.515C20.7254 20.515 20.7228 20.515 20.7177 20.515L19.5216 20.4181C19.4323 20.4105 19.3635 20.3314 19.3711 20.2421C19.3788 20.1529 19.4578 20.0866 19.5471 20.0917L20.5469 20.1733L20.2357 17.1332C20.2255 17.0439 20.2918 16.9623 20.3811 16.9546C20.4704 16.9444 20.552 17.0108 20.5596 17.1L20.8912 20.3365C20.8963 20.385 20.8784 20.4334 20.8453 20.4666C20.8172 20.4972 20.7739 20.515 20.7305 20.515Z" fill="#F55B5D"/>
<path d="M17.5859 21.8184C19.0575 22.0479 20.5546 22.1474 22.5592 21.7495C22.5592 21.7495 22.3857 23.8919 20.0062 23.8995C17.9837 23.9072 17.5859 21.8184 17.5859 21.8184Z" fill="#F5EFFF"/>
<path d="M17.4685 17.1157C17.4685 17.6819 17.2109 18.1435 16.8921 18.1435C16.5733 18.1435 16.3157 17.6844 16.3157 17.1157C16.3157 16.5495 16.5733 16.0879 16.8921 16.0879C17.2109 16.0904 17.4685 16.5495 17.4685 17.1157Z" fill="#19274B"/>
<path d="M23.0157 18.1435C23.3341 18.1435 23.5921 17.6834 23.5921 17.1157C23.5921 16.5481 23.3341 16.0879 23.0157 16.0879C22.6974 16.0879 22.4393 16.5481 22.4393 17.1157C22.4393 17.6834 22.6974 18.1435 23.0157 18.1435Z" fill="#19274B"/>
<path d="M15.3645 19.2224C15.3645 19.3193 15.2854 19.3983 15.1885 19.3983C15.0916 19.3983 15.0125 19.3193 15.0125 19.2224C15.0125 19.1254 15.0916 19.0464 15.1885 19.0464C15.2854 19.0464 15.3645 19.1254 15.3645 19.2224Z" fill="#F55B5D"/>
<path d="M16.048 19.8241C16.1452 19.8241 16.224 19.7453 16.224 19.6481C16.224 19.551 16.1452 19.4722 16.048 19.4722C15.9508 19.4722 15.872 19.551 15.872 19.6481C15.872 19.7453 15.9508 19.8241 16.048 19.8241Z" fill="#F55B5D"/>
<path d="M15.3645 20.263C15.3645 20.3599 15.2855 20.4389 15.1886 20.4389C15.0916 20.4389 15.0126 20.3599 15.0126 20.263C15.0126 20.166 15.0916 20.087 15.1886 20.087C15.2855 20.0844 15.3645 20.166 15.3645 20.263Z" fill="#F55B5D"/>
<path d="M16.7188 20.4387C16.7188 20.5356 16.6398 20.6147 16.5429 20.6147C16.4459 20.6147 16.3669 20.5356 16.3669 20.4387C16.3669 20.3418 16.4459 20.2627 16.5429 20.2627C16.6398 20.2627 16.7188 20.3418 16.7188 20.4387Z" fill="#F55B5D"/>
<path d="M17.6216 20.263C17.6216 20.3599 17.5425 20.4389 17.4456 20.4389C17.3487 20.4389 17.2697 20.3599 17.2697 20.263C17.2697 20.166 17.3487 20.087 17.4456 20.087C17.5425 20.0844 17.6216 20.166 17.6216 20.263Z" fill="#F55B5D"/>
<path d="M17.211 19.3981C17.211 19.4951 17.1319 19.5741 17.035 19.5741C16.9381 19.5741 16.859 19.4951 16.859 19.3981C16.859 19.3012 16.9381 19.2222 17.035 19.2222C17.1319 19.2222 17.211 19.3012 17.211 19.3981Z" fill="#F55B5D"/>
<path d="M24.8876 19.2224C24.8876 19.3193 24.9667 19.3983 25.0636 19.3983C25.1605 19.3983 25.2396 19.3193 25.2396 19.2224C25.2396 19.1255 25.1605 19.0464 25.0636 19.0464C24.9667 19.0464 24.8876 19.1255 24.8876 19.2224Z" fill="#F55B5D"/>
<path d="M24.2041 19.8241C24.3013 19.8241 24.3801 19.7453 24.3801 19.6481C24.3801 19.551 24.3013 19.4722 24.2041 19.4722C24.1069 19.4722 24.0281 19.551 24.0281 19.6481C24.0281 19.7453 24.1069 19.8241 24.2041 19.8241Z" fill="#F55B5D"/>
<path d="M24.8876 20.263C24.8876 20.3599 24.9667 20.4389 25.0636 20.4389C25.1605 20.4389 25.2396 20.3599 25.2396 20.263C25.2396 20.166 25.1605 20.087 25.0636 20.087C24.9667 20.0844 24.8876 20.166 24.8876 20.263Z" fill="#F55B5D"/>
<path d="M23.5334 20.4387C23.5334 20.5356 23.6125 20.6147 23.7094 20.6147C23.8063 20.6147 23.8854 20.5356 23.8854 20.4387C23.8854 20.3418 23.8063 20.2627 23.7094 20.2627C23.6125 20.2627 23.5334 20.3418 23.5334 20.4387Z" fill="#F55B5D"/>
<path d="M22.6306 20.263C22.6306 20.3599 22.7096 20.4389 22.8065 20.4389C22.9034 20.4389 22.9825 20.3599 22.9825 20.263C22.9825 20.166 22.9034 20.087 22.8065 20.087C22.7096 20.0844 22.6306 20.166 22.6306 20.263Z" fill="#F55B5D"/>
<path d="M23.0412 19.3981C23.0412 19.4951 23.1203 19.5741 23.2172 19.5741C23.3141 19.5741 23.3932 19.4951 23.3932 19.3981C23.3932 19.3012 23.3141 19.2222 23.2172 19.2222C23.1203 19.2222 23.0412 19.3012 23.0412 19.3981Z" fill="#F55B5D"/>
<path d="M16.6625 20.4795C15.0736 20.4795 13.778 19.1864 13.778 17.595C13.778 16.0061 15.0711 14.7104 16.6625 14.7104C18.2514 14.7104 19.547 16.0035 19.547 17.595C19.5445 19.1864 18.2514 20.4795 16.6625 20.4795ZM16.6625 14.9731C15.2164 14.9731 14.0407 16.1489 14.0407 17.595C14.0407 19.041 15.2164 20.2168 16.6625 20.2168C18.1086 20.2168 19.2844 19.041 19.2844 17.595C19.2844 16.1489 18.1061 14.9731 16.6625 14.9731Z" fill="#F5EFFF"/>
<path d="M23.6047 20.4795C22.0158 20.4795 20.7202 19.1864 20.7202 17.595C20.7202 16.0061 22.0133 14.7104 23.6047 14.7104C25.1936 14.7104 26.4892 16.0035 26.4892 17.595C26.4867 19.1864 25.1936 20.4795 23.6047 20.4795ZM23.6047 14.9731C22.1586 14.9731 20.9829 16.1489 20.9829 17.595C20.9829 19.041 22.1586 20.2168 23.6047 20.2168C25.0508 20.2168 26.2265 19.041 26.2265 17.595C26.2265 16.1489 25.0508 14.9731 23.6047 14.9731Z" fill="#F5EFFF"/>
<path d="M26.1934 16.7915C26.1628 16.7915 26.1296 16.7813 26.1041 16.7584C26.0506 16.7099 26.048 16.6257 26.0965 16.5747C26.1322 16.5365 26.984 15.6158 28.2618 15.8275C28.3332 15.8402 28.3816 15.9065 28.3689 15.9779C28.3561 16.0494 28.2898 16.0978 28.2184 16.0851C27.0809 15.8989 26.298 16.7431 26.2903 16.7507C26.2648 16.7762 26.2291 16.7915 26.1934 16.7915Z" fill="#F5EFFF"/>
<path d="M14.0918 16.7382C14.0586 16.7382 14.0229 16.7255 13.9974 16.6974C13.9821 16.6821 12.9517 15.6517 11.6816 16.0777C11.6128 16.1006 11.5388 16.0649 11.5159 15.996C11.4929 15.9272 11.5286 15.8532 11.5975 15.8303C13.0308 15.3508 14.1377 16.4679 14.1861 16.5163C14.2371 16.5673 14.2346 16.6515 14.1836 16.7025C14.1581 16.7255 14.1249 16.7382 14.0918 16.7382Z" fill="#F5EFFF"/>
<path d="M19.4145 17.3322C19.412 17.3322 19.4094 17.3322 19.4069 17.3322C19.3354 17.3271 19.2793 17.2659 19.2844 17.1919C19.2997 16.9624 19.4961 16.5288 20.1337 16.5288C20.7713 16.5288 20.9677 16.9624 20.983 17.1919C20.9881 17.2633 20.932 17.3271 20.8606 17.3322C20.7892 17.3373 20.7254 17.2812 20.7203 17.2098C20.7178 17.169 20.6693 16.7915 20.1312 16.7915C19.5777 16.7915 19.5446 17.1919 19.5446 17.2098C19.5395 17.2786 19.4834 17.3322 19.4145 17.3322Z" fill="#F5EFFF"/>
</g>
</g>
</svg>
